{"title":"9 2009 DVDrip English Klam","uid":6815293,"size":1124545903,"categoryP":"video","categoryS":"movies","magnet":"?xt=urn:btih:eed5a7614e3f7a6e5df2c8f2584833365fe08982&amp;dn=9+2009+DVDrip+English+Klam&amp;tr=udp%3A%2F%2Ftracker.openbittorrent.com%3A80&amp;tr=udp%3A%2F%2Fopen.demonii.com%3A1337&amp;tr=udp%3A%2F%2Ftracker.coppersurfer.tk%3A6969&amp;tr=udp%3A%2F%2Fexodus.desync.com%3A6969","seeders":0,"leechers":1,"uploader":"Klambake","files":-1,"time":1321182354,"description":"With th Voices of Elijah Wood, John C. Reilly and Jennifer Connelly\n\nWanneer de lappenpop 9 (Elijah Wood) voor het eerst tot leven komt, ziet hij dat hij zich in een post-apocalyptische wereld bevindt. Al het menselijk leven is verdwenen, maar bij toeval vindt hij een kleine gemeenschap met soortgenoten die zich verstoppen voor de vreselijke machines die op aarde rondzwerven. Deze machines proberen alles en iedereen uit te roeien, omdat zij de volledige controle en macht over de wereld willen hebben. 9 weet - ondanks dat hij het groentje uit de groep is - zijn soortgenoten te overtuigen dat verstoppen geen oplossing is. Ze moeten terugslaan als ze willen overleven. Wat ze snel zullen leren is dat de toekomst van hun beschaving van henzelf afhangt...\n\nA rag doll that awakens in a post-apocalyptic future holds the key to humanity's salvation.\n\n------------------ Dutch Friends ------------------\nYou can find my Friends at: http://www.Film-Test.nl \n------ They got my dutch subs ----- and more ------\n\nGeneral:\n\nComplete name                    : 9\\9.avi\nFormat                           : AVI\nFormat/Info                      : Audio Video Interleave\nFile size                        : 1.05 GiB\nDuration                         : 1h 16mn\nOverall bit rate                 : 1 972 Kbps\n\nVideo:\n\nFormat                           : MPEG-4 Visual\nFormat profile                   : Simple@L3\nFormat settings, BVOP            : No\nFormat settings, QPel            : No\nFormat settings, GMC             : No warppoints\nFormat settings, Matrix          : Default (H.263)\nCodec ID                         : XVID\nCodec ID/Hint                    : XviD\nDuration                         : 1h 16mn\nBit rate                         : 1 577 Kbps\nWidth                            : 652 pixels\nHeight                           : 352 pixels\nDisplay aspect ratio             : 1.852\nFrame rate                       : 25.000 fps\nColor space                      : YUV\nChroma subsampling               : 4:2:0\nBit depth                        : 8 bits\nScan type                        : Progressive\nCompression mode                 : Lossy\nBits/(Pixel*Frame)               : 0.275\nStream size                      : 858 MiB (80%)\nWriting library                  : XviD 1.1.2 (UTC 2006-11-01)\n\nAudio:\n\nFormat                           : AC-3\nFormat/Info                      : Audio Coding 3\nMode extension                   : CM (complete main)\nCodec ID                         : 2000\nDuration                         : 1h 16mn\nBit rate mode                    : Constant\nBit rate                         : 384 Kbps\nChannel(s)                       : 6 channels\nChannel positions                : Front: L C R, Side: L R, LFE\nSampling rate                    : 48.0 KHz\nBit depth                        : 16 bits\nCompression mode                 : Lossy\nStream size                      : 209 MiB (19%)\nAlignment                        : Aligned on interleaves\nInterleave, duration             : 32 ms (0.80 video frame)\nInterleave, preload duration     : 32 ms\n\n\n","torrent":{"xt":"urn:btih:eed5a7614e3f7a6e5df2c8f2584833365fe08982","amp;dn":"9+2009+DVDrip+English+Klam","amp;tr":["udp%3A%2F%2Ftracker.openbittorrent.com%3A80","udp%3A%2F%2Fopen.demonii.com%3A1337","udp%3A%2F%2Ftracker.coppersurfer.tk%3A6969","udp%3A%2F%2Fexodus.desync.com%3A6969"],"infoHash":"eed5a7614e3f7a6e5df2c8f2584833365fe08982","infoHashBuffer":{"type":"Buffer","data":[238,213,167,97,78,63,122,110,93,242,200,242,88,72,51,54,95,224,137,130]},"announce":[],"urlList":[]}}